Coordinates
version=1
nRows=21
nColumns=12
inDegrees=yes

Units are S.I. units (second, meters, Newtons, ...)
Angles are in degrees

endheader
time	SC_y	SC_z	SC_x	AC_y	AC_z	AC_x	GH_y	GH_z	GH_yy	EL_x	PS_y
       0.0              -53.13          17.34           62.2          60.14         -2.045          14.18         -102.6          62.34          -39.9           88.3          45.88
   0.03763              -53.13          17.34          62.19          60.14         -2.047          14.18         -102.6          62.34         -39.89          88.29           45.9
   0.07527              -53.12          17.34          62.18          60.14         -2.049          14.17         -102.6          62.34         -39.87          88.28          45.92
    0.1129              -53.12          17.33          62.17          60.14         -2.052          14.17         -102.6          62.34         -39.85          88.27          45.94
    0.1505              -53.12          17.33          62.16          60.14         -2.054          14.16         -102.5          62.34         -39.84          88.27          45.95
    0.1882              -53.12          17.33          62.15          60.15         -2.057          14.16         -102.5          62.34         -39.82          88.26          45.98
    0.2258              -53.12          17.33          62.13          60.15          -2.06          14.15         -102.5          62.34          -39.8          88.25           46.0
    0.2634              -53.12          17.32          62.12          60.15         -2.063          14.15         -102.4          62.34         -39.78          88.23          46.02
    0.3011              -53.12          17.32          62.11          60.15         -2.066          14.14         -102.4          62.34         -39.75          88.22          46.05
    0.3387              -53.12          17.31          62.09          60.15          -2.07          14.14         -102.3          62.34         -39.73          88.21          46.07
    0.3763              -53.11          17.31          62.08          60.15         -2.074          14.13         -102.3          62.34          -39.7           88.2           46.1
     0.414              -53.11          17.31          62.06          60.15         -2.078          14.12         -102.2          62.34         -39.67          88.18          46.13
    0.4516              -53.11           17.3          62.04          60.16         -2.082          14.12         -102.2          62.34         -39.64          88.17          46.17
    0.4893              -53.11          17.29          62.02          60.16         -2.087          14.11         -102.1          62.34         -39.61          88.15           46.2
    0.5269              -53.11          17.29           62.0          60.16         -2.092           14.1         -102.1          62.34         -39.57          88.13          46.24
    0.5645              -53.11          17.28          61.98          60.16         -2.098          14.09         -102.0          62.34         -39.53          88.11          46.28
    0.6022               -53.1          17.28          61.95          60.16         -2.104          14.08         -101.9          62.34         -39.49          88.09          46.33
    0.6398               -53.1          17.27          61.92          60.17         -2.111          14.07         -101.8          62.34         -39.44          88.07          46.38
    0.6774               -53.1          17.26          61.89          60.17         -2.118          14.06         -101.7          62.34         -39.39          88.04          46.44
    0.7151              -53.09          17.25          61.86          60.17         -2.126          14.05         -101.6          62.34         -39.33          88.01           46.5
    0.7527              -53.09          17.24          61.83          60.18         -2.135          14.03         -101.5          62.34         -39.27          87.98          46.56
